# xmcd
#
# Track frame offsets: 
#        150
#        2010
#        15090
#        29283
#        48133
#        66638
#        78998
#        82373
#        98690
#        120543
#        148500
#        151380
#        154100
#        165888
#        167500
#        174633
#        179123
#        203658
#        229063
#        249175
#        252130
#        272050
#
# Disc length: 3848 seconds
#
# Revision: 5
# Processed by: cddbd v1.5.1PL2 Copyright (c) Steve Scherf et al.
# Submitted via: ExactAudioCopy v0.95b4
#
DISCID=100f0616
DTITLE=Four Bitchin' Babes - Buy Me Bring Me Take Me Don't Mess My Hai
DTITLE=r-Life According to 4 Bitchin' Babes Volume 1
DYEAR=1991
DGENRE=Country
TTITLE0=Dick Cerri Introduces The Show
TTITLE1=Prisoners Of Their Hairdos
TTITLE2=Wake Up And Dream
TTITLE3=Not Bad For A Broad
TTITLE4=Ladies Lunch
TTITLE5=Good Thing He Can't Read My Mind
TTITLE6=Megon On 'Codependency' And Wuthering Heights
TTITLE7=Painless Love
TTITLE8=Dave's Holiday
TTITLE9=Home Is Where The Heart Is
TTITLE10=Christine Reads Mailing List Cards
TTITLE11=Sally Explains Game Show
TTITLE12=She Moved Throught The Fair
TTITLE13=Megon Draws Next Audience Suggestion
TTITLE14=Junk Food
TTITLE15=Sally Draws Next Audience Suggestion
TTITLE16=Sensitive New Age Guys
TTITLE17=But Still He Loved Her So (The Ballad Of Harry And Ester)
TTITLE18=I'm Fine
TTITLE19=Meg Channels Patty
TTITLE20=Every Living Thing
TTITLE21=These Boots Are Made For Walking
EXTD=
EXTT0=
EXTT1=
EXTT2=
EXTT3=
EXTT4=
EXTT5=
EXTT6=
EXTT7=
EXTT8=
EXTT9=
EXTT10=
EXTT11=
EXTT12=
EXTT13=
EXTT14=
EXTT15=
EXTT16=
EXTT17=
EXTT18=
EXTT19=
EXTT20=
EXTT21=
PLAYORDER=
